<svg width="1440" height="213" fill="none" xmlns="http://www.w3.org/2000/svg"><mask id="b" maskUnits="userSpaceOnUse" x="-141.529" y=".944" width="1715" height="212" fill="#000"><path fill="#fff" d="M-141.529.944h1715v212h-1715z"/><path d="M-85.233 207V46.872h-55.296V5.4H16.719v41.472h-55.584V207h-46.368Zm239.67-76.608c0 5.76-.384 12.192-1.152 19.296H50.757c.384 9.024 3.456 16.032 9.216 21.024 5.76 4.992 13.536 7.488 23.328 7.488 13.44 0 22.08-4.32 25.92-12.96h43.2c-2.112 13.632-9.6 24.768-22.464 33.408-12.672 8.448-28.224 12.672-46.656 12.672-23.616 0-42.24-6.528-55.872-19.584-13.632-13.056-20.448-31.104-20.448-54.144 0-22.656 6.816-40.512 20.448-53.568 13.632-13.248 31.776-19.872 54.432-19.872 21.504 0 38.976 6.144 52.416 18.432 13.44 12.288 20.16 28.224 20.16 47.808Zm-103.68-8.064h60.192c-.192-9.216-2.784-16.32-7.776-21.312-4.992-4.992-12.192-7.488-21.6-7.488-9.408 0-16.896 2.688-22.464 8.064-5.376 5.184-8.16 12.096-8.352 20.736ZM235.79 211.32c-19.967 0-35.903-4.32-47.807-12.96-11.904-8.64-17.857-19.68-17.857-33.12h43.776c0 4.8 2.112 8.736 6.336 11.808 4.224 3.072 9.697 4.608 16.417 4.608 4.799 0 8.639-1.152 11.519-3.456 3.072-2.304 4.609-5.472 4.609-9.504 0-6.336-3.36-10.272-10.08-11.808l-33.984-8.64c-11.328-2.88-19.969-7.776-25.921-14.688-5.952-6.912-8.927-15.36-8.927-25.344 0-13.056 5.375-23.616 16.128-31.68 10.752-8.256 25.152-12.384 43.2-12.384 19.968 0 35.232 3.84 45.792 11.52 10.751 7.68 16.127 18.24 16.127 31.68H251.63c0-4.8-1.728-8.544-5.183-11.232-3.265-2.688-7.873-4.032-13.825-4.032-4.799 0-8.639 1.056-11.519 3.168-2.88 2.112-4.32 4.896-4.32 8.352 0 6.144 3.936 10.272 11.808 12.384l32.832 8.928c10.944 2.88 19.487 7.68 25.632 14.4 6.336 6.528 9.504 14.592 9.504 24.192 0 14.4-5.472 26.016-16.416 34.848-10.752 8.64-25.536 12.96-44.353 12.96Zm159.03-38.592c6.144 0 11.233-.288 15.265-.864V207c-8.448 1.536-18.241 2.304-29.377 2.304-4.992 0-9.407-.288-13.247-.864-3.84-.576-8.16-1.824-12.96-3.744-4.8-2.112-8.737-4.896-11.808-8.352-3.072-3.456-5.761-8.448-8.064-14.976-2.112-6.528-3.168-14.208-3.168-23.04v-55.296h-21.888V68.184h21.888V27h44.064v41.184h31.392v34.848h-31.392v46.08c0 9.408 1.632 15.744 4.896 19.008 3.264 3.072 8.063 4.608 14.399 4.608Zm82.24-124.704c-5.184 5.184-11.712 7.776-19.584 7.776s-14.4-2.592-19.584-7.776c-4.992-5.184-7.488-11.52-7.488-19.008 0-7.68 2.496-14.112 7.488-19.296 5.184-5.184 11.712-7.776 19.584-7.776s14.4 2.688 19.584 8.064c5.184 5.184 7.776 11.52 7.776 19.008 0 7.488-2.592 13.824-7.776 19.008ZM435.3 207V68.184h44.064V207H435.3Zm80.438 0V68.184h44.064v20.16c3.072-7.104 8.064-12.864 14.976-17.28 7.104-4.416 15.36-6.624 24.768-6.624 21.888 0 36.384 8.544 43.488 25.632 3.84-7.68 9.696-13.824 17.568-18.432 7.872-4.8 16.8-7.2 26.784-7.2 32.832 0 49.248 18.816 49.248 56.448V207h-44.352v-78.048c0-18.24-6.912-27.36-20.736-27.36-15.552 0-23.328 11.328-23.328 33.984V207h-44.352v-78.336c0-18.048-6.816-27.072-20.448-27.072-7.68 0-13.536 2.592-17.568 7.776-4.032 4.992-6.048 13.728-6.048 26.208V207h-44.064Zm377.768-16.416c-13.824 13.824-32.448 20.736-55.872 20.736s-42.144-6.912-56.16-20.736c-14.016-13.824-21.024-31.488-21.024-52.992 0-21.504 7.008-39.072 21.024-52.704 14.016-13.824 32.736-20.736 56.16-20.736s42.048 6.912 55.872 20.736c14.016 13.632 21.024 31.2 21.024 52.704s-7.008 39.168-21.024 52.992Zm-55.872-16.704c10.176 0 18.24-3.36 24.192-10.08 5.952-6.72 8.928-15.456 8.928-26.208 0-10.752-2.976-19.488-8.928-26.208-5.952-6.72-14.016-10.08-24.192-10.08-10.368 0-18.528 3.36-24.48 10.08-5.76 6.72-8.64 15.456-8.64 26.208 0 10.752 2.88 19.488 8.64 26.208 5.952 6.72 14.112 10.08 24.48 10.08ZM939.863 207V68.184h44.064v20.16c8.256-15.936 23.233-23.904 44.923-23.904 33.8 0 50.69 18.912 50.69 56.736V207h-44.35v-71.424c0-11.904-1.92-20.544-5.76-25.92-3.65-5.376-9.89-8.064-18.72-8.064-17.855 0-26.783 10.944-26.783 32.832V207h-44.064ZM1156.56 48.024c-5.18 5.184-11.71 7.776-19.58 7.776-7.88 0-14.4-2.592-19.59-7.776-4.99-5.184-7.49-11.52-7.49-19.008 0-7.68 2.5-14.112 7.49-19.296 5.19-5.184 11.71-7.776 19.59-7.776 7.87 0 14.4 2.688 19.58 8.064 5.18 5.184 7.78 11.52 7.78 19.008 0 7.488-2.6 13.824-7.78 19.008ZM1114.8 207V68.184h44.06V207h-44.06Zm135.73 3.744c-20.16 0-36.09-6.816-47.8-20.448-11.72-13.632-17.57-31.2-17.57-52.704 0-21.12 6.05-38.592 18.14-52.416 12.1-13.824 28.03-20.736 47.81-20.736 9.79 0 18.53 2.112 26.21 6.336s13.44 9.984 17.28 17.28V68.184h43.77V207h-43.77v-19.584c-3.84 6.912-9.79 12.576-17.86 16.992-7.87 4.224-16.61 6.336-26.21 6.336Zm12.68-36.576c10.56 0 18.72-3.456 24.48-10.368 5.76-6.912 8.64-15.648 8.64-26.208 0-10.368-2.88-19.008-8.64-25.92-5.76-6.912-13.92-10.368-24.48-10.368-9.99 0-18.05 3.36-24.2 10.08-5.95 6.72-8.92 15.456-8.92 26.208 0 10.752 2.97 19.584 8.92 26.496 6.15 6.72 14.21 10.08 24.2 10.08ZM1374.96 207V5.4h44.06V207h-44.06Zm136.02 4.32c-19.97 0-35.91-4.32-47.81-12.96-11.9-8.64-17.86-19.68-17.86-33.12h43.78c0 4.8 2.11 8.736 6.34 11.808 4.22 3.072 9.69 4.608 16.41 4.608 4.8 0 8.64-1.152 11.52-3.456 3.07-2.304 4.61-5.472 4.61-9.504 0-6.336-3.36-10.272-10.08-11.808l-33.98-8.64c-11.33-2.88-19.97-7.776-25.92-14.688-5.96-6.912-8.93-15.36-8.93-25.344 0-13.056 5.37-23.616 16.13-31.68 10.75-8.256 25.15-12.384 43.2-12.384 19.96 0 35.23 3.84 45.79 11.52 10.75 7.68 16.13 18.24 16.13 31.68h-43.49c0-4.8-1.73-8.544-5.19-11.232-3.26-2.688-7.87-4.032-13.82-4.032-4.8 0-8.64 1.056-11.52 3.168-2.88 2.112-4.32 4.896-4.32 8.352 0 6.144 3.94 10.272 11.81 12.384l32.83 8.928c10.94 2.88 19.49 7.68 25.63 14.4 6.34 6.528 9.51 14.592 9.51 24.192 0 14.4-5.48 26.016-16.42 34.848-10.75 8.64-25.54 12.96-44.35 12.96Z"/></mask><path d="M-85.233 207V46.872h-55.296V5.4H16.719v41.472h-55.584V207h-46.368Zm239.67-76.608c0 5.76-.384 12.192-1.152 19.296H50.757c.384 9.024 3.456 16.032 9.216 21.024 5.76 4.992 13.536 7.488 23.328 7.488 13.44 0 22.08-4.32 25.92-12.96h43.2c-2.112 13.632-9.6 24.768-22.464 33.408-12.672 8.448-28.224 12.672-46.656 12.672-23.616 0-42.24-6.528-55.872-19.584-13.632-13.056-20.448-31.104-20.448-54.144 0-22.656 6.816-40.512 20.448-53.568 13.632-13.248 31.776-19.872 54.432-19.872 21.504 0 38.976 6.144 52.416 18.432 13.44 12.288 20.16 28.224 20.16 47.808Zm-103.68-8.064h60.192c-.192-9.216-2.784-16.32-7.776-21.312-4.992-4.992-12.192-7.488-21.6-7.488-9.408 0-16.896 2.688-22.464 8.064-5.376 5.184-8.16 12.096-8.352 20.736ZM235.79 211.32c-19.967 0-35.903-4.32-47.807-12.96-11.904-8.64-17.857-19.68-17.857-33.12h43.776c0 4.8 2.112 8.736 6.336 11.808 4.224 3.072 9.697 4.608 16.417 4.608 4.799 0 8.639-1.152 11.519-3.456 3.072-2.304 4.609-5.472 4.609-9.504 0-6.336-3.36-10.272-10.08-11.808l-33.984-8.64c-11.328-2.88-19.969-7.776-25.921-14.688-5.952-6.912-8.927-15.36-8.927-25.344 0-13.056 5.375-23.616 16.128-31.68 10.752-8.256 25.152-12.384 43.2-12.384 19.968 0 35.232 3.84 45.792 11.52 10.751 7.68 16.127 18.24 16.127 31.68H251.63c0-4.8-1.728-8.544-5.183-11.232-3.265-2.688-7.873-4.032-13.825-4.032-4.799 0-8.639 1.056-11.519 3.168-2.88 2.112-4.32 4.896-4.32 8.352 0 6.144 3.936 10.272 11.808 12.384l32.832 8.928c10.944 2.88 19.487 7.68 25.632 14.4 6.336 6.528 9.504 14.592 9.504 24.192 0 14.4-5.472 26.016-16.416 34.848-10.752 8.64-25.536 12.96-44.353 12.96Zm159.03-38.592c6.144 0 11.233-.288 15.265-.864V207c-8.448 1.536-18.241 2.304-29.377 2.304-4.992 0-9.407-.288-13.247-.864-3.84-.576-8.16-1.824-12.96-3.744-4.8-2.112-8.737-4.896-11.808-8.352-3.072-3.456-5.761-8.448-8.064-14.976-2.112-6.528-3.168-14.208-3.168-23.04v-55.296h-21.888V68.184h21.888V27h44.064v41.184h31.392v34.848h-31.392v46.08c0 9.408 1.632 15.744 4.896 19.008 3.264 3.072 8.063 4.608 14.399 4.608Zm82.24-124.704c-5.184 5.184-11.712 7.776-19.584 7.776s-14.4-2.592-19.584-7.776c-4.992-5.184-7.488-11.52-7.488-19.008 0-7.68 2.496-14.112 7.488-19.296 5.184-5.184 11.712-7.776 19.584-7.776s14.4 2.688 19.584 8.064c5.184 5.184 7.776 11.52 7.776 19.008 0 7.488-2.592 13.824-7.776 19.008ZM435.3 207V68.184h44.064V207H435.3Zm80.438 0V68.184h44.064v20.16c3.072-7.104 8.064-12.864 14.976-17.28 7.104-4.416 15.36-6.624 24.768-6.624 21.888 0 36.384 8.544 43.488 25.632 3.84-7.68 9.696-13.824 17.568-18.432 7.872-4.8 16.8-7.2 26.784-7.2 32.832 0 49.248 18.816 49.248 56.448V207h-44.352v-78.048c0-18.24-6.912-27.36-20.736-27.36-15.552 0-23.328 11.328-23.328 33.984V207h-44.352v-78.336c0-18.048-6.816-27.072-20.448-27.072-7.68 0-13.536 2.592-17.568 7.776-4.032 4.992-6.048 13.728-6.048 26.208V207h-44.064Zm377.768-16.416c-13.824 13.824-32.448 20.736-55.872 20.736s-42.144-6.912-56.16-20.736c-14.016-13.824-21.024-31.488-21.024-52.992 0-21.504 7.008-39.072 21.024-52.704 14.016-13.824 32.736-20.736 56.16-20.736s42.048 6.912 55.872 20.736c14.016 13.632 21.024 31.2 21.024 52.704s-7.008 39.168-21.024 52.992Zm-55.872-16.704c10.176 0 18.24-3.36 24.192-10.08 5.952-6.72 8.928-15.456 8.928-26.208 0-10.752-2.976-19.488-8.928-26.208-5.952-6.72-14.016-10.08-24.192-10.08-10.368 0-18.528 3.36-24.48 10.08-5.76 6.72-8.64 15.456-8.64 26.208 0 10.752 2.88 19.488 8.64 26.208 5.952 6.72 14.112 10.08 24.48 10.08ZM939.863 207V68.184h44.064v20.16c8.256-15.936 23.233-23.904 44.923-23.904 33.8 0 50.69 18.912 50.69 56.736V207h-44.35v-71.424c0-11.904-1.92-20.544-5.76-25.92-3.65-5.376-9.89-8.064-18.72-8.064-17.855 0-26.783 10.944-26.783 32.832V207h-44.064ZM1156.56 48.024c-5.18 5.184-11.71 7.776-19.58 7.776-7.88 0-14.4-2.592-19.59-7.776-4.99-5.184-7.49-11.52-7.49-19.008 0-7.68 2.5-14.112 7.49-19.296 5.19-5.184 11.71-7.776 19.59-7.776 7.87 0 14.4 2.688 19.58 8.064 5.18 5.184 7.78 11.52 7.78 19.008 0 7.488-2.6 13.824-7.78 19.008ZM1114.8 207V68.184h44.06V207h-44.06Zm135.73 3.744c-20.16 0-36.09-6.816-47.8-20.448-11.72-13.632-17.57-31.2-17.57-52.704 0-21.12 6.05-38.592 18.14-52.416 12.1-13.824 28.03-20.736 47.81-20.736 9.79 0 18.53 2.112 26.21 6.336s13.44 9.984 17.28 17.28V68.184h43.77V207h-43.77v-19.584c-3.84 6.912-9.79 12.576-17.86 16.992-7.87 4.224-16.61 6.336-26.21 6.336Zm12.68-36.576c10.56 0 18.72-3.456 24.48-10.368 5.76-6.912 8.64-15.648 8.64-26.208 0-10.368-2.88-19.008-8.64-25.92-5.76-6.912-13.92-10.368-24.48-10.368-9.99 0-18.05 3.36-24.2 10.08-5.95 6.72-8.92 15.456-8.92 26.208 0 10.752 2.97 19.584 8.92 26.496 6.15 6.72 14.21 10.08 24.2 10.08ZM1374.96 207V5.4h44.06V207h-44.06Zm136.02 4.32c-19.97 0-35.91-4.32-47.81-12.96-11.9-8.64-17.86-19.68-17.86-33.12h43.78c0 4.8 2.11 8.736 6.34 11.808 4.22 3.072 9.69 4.608 16.41 4.608 4.8 0 8.64-1.152 11.52-3.456 3.07-2.304 4.61-5.472 4.61-9.504 0-6.336-3.36-10.272-10.08-11.808l-33.98-8.64c-11.33-2.88-19.97-7.776-25.92-14.688-5.96-6.912-8.93-15.36-8.93-25.344 0-13.056 5.37-23.616 16.13-31.68 10.75-8.256 25.15-12.384 43.2-12.384 19.96 0 35.23 3.84 45.79 11.52 10.75 7.68 16.13 18.24 16.13 31.68h-43.49c0-4.8-1.73-8.544-5.19-11.232-3.26-2.688-7.87-4.032-13.82-4.032-4.8 0-8.64 1.056-11.52 3.168-2.88 2.112-4.32 4.896-4.32 8.352 0 6.144 3.94 10.272 11.81 12.384l32.83 8.928c10.94 2.88 19.49 7.68 25.63 14.4 6.34 6.528 9.51 14.592 9.51 24.192 0 14.4-5.48 26.016-16.42 34.848-10.75 8.64-25.54 12.96-44.35 12.96Z" stroke="url(#a)" stroke-width="2" mask="url(#b)"/><defs><linearGradient id="a" x1="719.5" y1="-52" x2="719.5" y2="278" gradientUnits="userSpaceOnUse"><stop stop-color="#003D80"/><stop offset=".874" stop-color="#003D80" stop-opacity="0"/></linearGradient></defs></svg>