<svg width="64" height="64" fill="none" xmlns="http://www.w3.org/2000/svg"><path fill-rule="evenodd" clip-rule="evenodd" d="M43.089 21.954c0 6.266-4.995 11.29-11.225 11.29-6.23 0-11.225-5.024-11.225-11.29 0-6.268 4.995-11.287 11.225-11.287 6.23 0 11.225 5.02 11.225 11.287Zm-11.225 31.38c-9.15 0-16.962-1.451-16.962-7.254 0-5.804 7.762-7.308 16.962-7.308 9.15 0 16.963 1.45 16.963 7.256 0 5.802-7.763 7.305-16.963 7.305Zm16.022-31.176c0 3.194-.953 6.17-2.625 8.643a.422.422 0 0 0 .285.651c.417.072.85.113 1.289.125 4.382.115 8.314-2.721 9.4-6.991 1.61-6.343-3.115-12.037-9.133-12.037-.654 0-1.28.07-1.888.195-.084.019-.172.057-.22.132-.057.09-.014.213.043.293a15.484 15.484 0 0 1 2.849 8.989Zm7.256 13.875c2.944.58 4.88 1.76 5.683 3.478a5.127 5.127 0 0 1 0 4.453c-1.228 2.663-5.184 3.518-6.722 3.739-.317.048-.573-.228-.54-.548.786-7.38-5.463-10.879-7.079-11.684-.07-.035-.084-.09-.076-.124.004-.024.033-.063.085-.07 3.499-.065 7.26.416 8.649.756Zm-37.976-4.456c.439-.012.869-.05 1.289-.125a.423.423 0 0 0 .284-.65 15.372 15.372 0 0 1-2.624-8.644c0-3.334 1.041-6.441 2.849-8.99.057-.079.098-.201.043-.292-.048-.073-.139-.113-.22-.133a9.387 9.387 0 0 0-1.891-.194c-6.017 0-10.743 5.694-9.13 12.037 1.086 4.27 5.018 7.106 9.4 6.99Zm.426 3.768c.007.036-.007.09-.074.127-1.62.805-7.868 4.304-7.082 11.682.033.322-.22.596-.537.55-1.538-.221-5.495-1.076-6.722-3.74a5.11 5.11 0 0 1 0-4.452c.802-1.717 2.736-2.899 5.68-3.48 1.393-.339 5.15-.819 8.651-.754.053.007.08.046.084.067Z" fill="#003D80"/></svg>