<svg xmlns="http://www.w3.org/2000/svg" viewBox="0 0 416.449 416.449" style="enable-background:new 0 0 416.449 416.449" xml:space="preserve" width="64" height="64"><path style="fill:#003D80" d="M399.76 16.699c10.12 37.84 8.67 78.13-4.34 115.28h-.01L284.48 21.049v-.01c37.15-13.01 77.44-14.46 115.28-4.34z"/><path style="fill:#003D80" d="m90.21 207.929 87.14-101.42h.01l33.71-39.24c21.43-21.43 46.6-36.84 73.41-46.23v.01l110.93 110.93h.01c-9.39 26.81-24.8 51.98-46.23 73.41l-39.24 33.71-101.43 87.14-29.57-29.57-29.58-29.58-29.58-29.58-29.58-29.58zm205.9-14.53c20.18-20.17 20.18-52.89 0-73.06-20.17-20.18-52.89-20.18-73.06 0-20.18 20.17-20.18 52.89 0 73.06 20.17 20.18 52.89 20.18 73.06 0z"/><path style="fill:#003D80" d="M309.95 239.099c1.74 45.6-14.8 91.78-49.61 126.59-10.69 10.68-22.44 19.65-34.93 26.89l-16.89-66.34 101.43-87.14z"/><path style="fill:#003D80" d="m208.52 326.239-39.94 14.71a29.971 29.971 0 0 1-31.58-6.94l-6.85-6.85 48.8-30.49 29.57 29.57z"/><path style="fill:#003D80" d="m178.95 296.669-48.8 30.49h-.01l-20.42-20.42 39.65-39.65zm-1.6-190.16-87.14 101.42-66.33-16.88c7.24-12.49 16.21-24.24 26.89-34.93 34.81-34.81 80.97-51.35 126.58-49.61z"/><path style="fill:#003D80" d="m149.37 267.089-39.65 39.65-20.42-20.43 30.49-48.8z"/><path style="fill:#003D80" d="m119.79 237.509-30.49 48.8-6.86-6.85a30.015 30.015 0 0 1-6.94-31.58l14.71-39.95 29.58 29.58z"/><path style="fill:#ff8257" d="M28.88 339.459a9.97 9.97 0 0 1-7.071-2.929c-3.905-3.905-3.905-10.237 0-14.143l20.54-20.54c3.905-3.904 10.237-3.904 14.143 0 3.905 3.905 3.905 10.237 0 14.143l-20.54 20.54a9.973 9.973 0 0 1-7.072 2.929zM10 416.439a9.97 9.97 0 0 1-7.072-2.93c-3.905-3.905-3.904-10.237.001-14.142l68.47-68.46c3.905-3.904 10.237-3.904 14.142.001 3.905 3.905 3.904 10.237-.002 14.142l-68.47 68.46A9.96 9.96 0 0 1 10 416.439zm63.29-5.18a9.97 9.97 0 0 1-7.071-2.929c-3.905-3.905-3.905-10.237 0-14.143l34.23-34.229c3.905-3.904 10.237-3.903 14.142 0 3.905 3.905 3.905 10.237 0 14.143l-34.23 34.229a9.97 9.97 0 0 1-7.071 2.929z"/><path style="fill:#13161d" d="M89.291 296.31c-1.81 0-3.642-.49-5.29-1.521-4.684-2.926-6.108-9.096-3.182-13.779l30.49-48.8c2.927-4.684 9.097-6.11 13.78-3.182 4.684 2.926 6.108 9.096 3.182 13.779l-30.49 48.8a9.993 9.993 0 0 1-8.49 4.703zm20.429 20.429a9.972 9.972 0 0 1-7.071-2.929c-3.905-3.905-3.906-10.237-.001-14.143l39.65-39.65c3.905-3.904 10.237-3.904 14.142 0 3.905 3.905 3.906 10.237.001 14.142l-39.65 39.65a9.963 9.963 0 0 1-7.071 2.93zm20.44 20.421a9.992 9.992 0 0 1-8.49-4.702c-2.926-4.684-1.501-10.854 3.182-13.779l48.8-30.49c4.683-2.929 10.853-1.503 13.78 3.182 2.926 4.684 1.501 10.853-3.182 13.779l-48.8 30.49a9.953 9.953 0 0 1-5.29 1.52zm47.196-220.651a9.961 9.961 0 0 1-6.512-2.415c-4.189-3.599-4.668-9.912-1.069-14.102l33.71-39.24c3.598-4.188 9.911-4.668 14.102-1.068 4.189 3.599 4.668 9.912 1.068 14.101l-33.71 39.24a9.976 9.976 0 0 1-7.589 3.484z"/><path style="fill:#13161d" d="M158.265 352.787c-10.448 0-20.723-4.085-28.34-11.712l-6.582-6.582a8.47 8.47 0 0 1-.273-.263l-47.694-47.695c-10.992-11.006-14.623-27.531-9.259-42.109l14.71-39.952a10.007 10.007 0 0 1 1.799-3.061l87.14-101.42c3.601-4.188 9.913-4.667 14.102-1.068 4.189 3.6 4.667 9.913 1.068 14.102l-85.965 100.05-14.086 38.257c-2.682 7.289-.864 15.556 4.632 21.059l47.432 47.433c.092.086.184.173.273.263l6.85 6.85c5.497 5.504 13.756 7.318 21.048 4.63l38.252-14.089 139.302-119.675c4.191-3.6 10.504-3.119 14.102 1.068 3.6 4.189 3.121 10.503-1.068 14.102L215.036 333.824a9.99 9.99 0 0 1-3.059 1.799l-39.941 14.71a39.775 39.775 0 0 1-13.771 2.454z"/><path style="fill:#13161d" d="M349.19 215.389a9.972 9.972 0 0 1-7.071-2.929c-3.905-3.905-3.905-10.237 0-14.143 19.885-19.884 34.642-43.315 43.863-69.644 11.736-33.512 13.626-69.25 5.536-103.733-34.48-8.089-70.221-6.199-103.733 5.536-26.329 9.221-49.761 23.979-69.645 43.863-3.905 3.904-10.236 3.905-14.143 0-3.905-3.905-3.905-10.237 0-14.143 22.025-22.024 47.991-38.375 77.176-48.596 39.158-13.711 81.058-15.29 121.171-4.561a10 10 0 0 1 7.076 7.076c10.728 40.114 9.151 82.014-4.563 121.17-10.221 29.185-26.571 55.15-48.596 77.175a9.969 9.969 0 0 1-7.071 2.929z"/><path style="fill:#13161d" d="M395.41 141.98a9.97 9.97 0 0 1-7.071-2.929L277.409 28.12c-3.905-3.905-3.905-10.237 0-14.143 3.908-3.905 10.238-3.903 14.143 0l110.93 110.931c3.905 3.905 3.905 10.237 0 14.143a9.976 9.976 0 0 1-7.072 2.929zM90.22 217.929c-.832 0-1.67-.104-2.477-.309l-66.33-16.88a10 10 0 0 1-6.185-14.706c7.778-13.418 17.355-25.86 28.467-36.982 35.281-35.281 84.119-54.445 133.988-52.537 5.369.176 9.671 4.583 9.671 9.994 0 5.522-4.472 10-9.995 10h-.01c-.127 0-.254-.002-.381-.007-44.338-1.699-87.765 15.325-119.127 46.688a161.475 161.475 0 0 0-18.101 21.576l52.73 13.419c4.435 1.024 7.745 4.998 7.745 9.743 0 5.523-4.472 10.001-9.995 10.001zm135.19 184.65a9.999 9.999 0 0 1-9.691-7.532l-16.891-66.34c-1.363-5.353 1.872-10.796 7.224-12.158 5.349-1.366 10.795 1.871 12.158 7.223l13.48 52.948a161.592 161.592 0 0 0 21.581-18.104c31.36-31.36 48.378-74.785 46.684-119.136-.21-5.519 4.093-10.163 9.611-10.374 5.509-.233 10.164 4.093 10.375 9.611 1.903 49.897-17.243 98.755-52.532 134.044-11.124 11.113-23.567 20.691-36.986 28.47a9.986 9.986 0 0 1-5.013 1.348z"/></svg>