<svg width="64" height="64" fill="none" xmlns="http://www.w3.org/2000/svg"><g fill="#003D80"><path d="M57.14 6.875a5.17 5.17 0 0 0-5.147-1.333L9.086 17.94c-1.94.54-3.317 2.078-3.688 4.03-.378 1.99.944 4.517 2.672 5.573l13.416 8.192a3.489 3.489 0 0 0 4.291-.51L41.14 19.863a1.96 1.96 0 0 1 2.827 0c.773.77.773 2.027 0 2.827L28.577 38.05a3.494 3.494 0 0 0-.515 4.291L36.26 55.81a5.104 5.104 0 0 0 4.427 2.506c.213 0 .453 0 .666-.029 2.08-.264 3.733-1.68 4.347-3.68l12.72-42.584c.56-1.813.053-3.787-1.28-5.147Z"/><path opacity=".4" fill-rule="evenodd" clip-rule="evenodd" d="M8.028 44.82a1.984 1.984 0 0 1-1.413-.586 1.997 1.997 0 0 1 0-2.827l3.64-3.642a2.005 2.005 0 0 1 2.83 0 2.006 2.006 0 0 1 0 2.83l-3.644 3.64c-.389.391-.9.586-1.413.586ZM18.058 48a1.984 1.984 0 0 1-1.413-.586 1.997 1.997 0 0 1 0-2.827l3.64-3.643a2.005 2.005 0 0 1 2.829 0 2.005 2.005 0 0 1 0 2.83l-3.643 3.64c-.39.392-.901.587-1.413.587Zm.677 9.515c.389.392.9.587 1.413.587.512 0 1.024-.195 1.413-.587l3.643-3.64a2.005 2.005 0 0 0 0-2.83 2.005 2.005 0 0 0-2.83 0l-3.64 3.643a1.997 1.997 0 0 0 0 2.827Z"/></g></svg>