<svg width="30" height="30" fill="none" xmlns="http://www.w3.org/2000/svg"><path d="M12.476 1.93c1.18-1.838 3.867-1.838 5.048 0l2.98 4.64a3 3 0 0 0 1.763 1.28l5.335 1.401c2.113.555 2.943 3.11 1.56 4.802l-3.493 4.268a3 3 0 0 0-.673 2.072l.316 5.506c.126 2.181-2.048 3.76-4.084 2.968l-5.139-2.003a2.999 2.999 0 0 0-2.178 0l-5.14 2.003c-2.035.793-4.209-.787-4.083-2.968l.316-5.506a3 3 0 0 0-.673-2.072L.839 14.053C-.545 12.362.285 9.806 2.399 9.25l5.334-1.4a3 3 0 0 0 1.762-1.28l2.98-4.641Z" fill="#F2C94C"/></svg>